# xmcd CD database file
#
# Track frame offsets:
#	180
#	16606
#	32776
#	45056
#	66613
#	86199
#	108141
#	119530
#	131755
#	151133
#	171776
#	191248
#	225761
#	242913
#	256459
#
# Disc length: 3676 seconds
#
# Revision: 4
# Processed by: cddbd v1.4PL0 Copyright (c) Steve Scherf et al.
# Submitted via: CDex 1.51
#
DISCID=bf0e5a0f
DTITLE=Various Artist - Reflections
DYEAR=1997
DGENRE=New Age
TTITLE0=Joy 
TTITLE1=Waltz Of The Tide
TTITLE2=Reflections
TTITLE3=Layla
TTITLE4=Thanksgiving
TTITLE5=Nocturne Of The Sea Shell
TTITLE6=sun Plane
TTITLE7=Day After Day
TTITLE8=New Age Jam
TTITLE9=Because Of You
TTITLE10=Girl I Love You
TTITLE11=Colors
TTITLE12=Snow Pearls
TTITLE13=So Far, So Near
TTITLE14=You And I
EXTD=YEAR: 1997
EXTT0=
EXTT1=
EXTT2=
EXTT3=
EXTT4=
EXTT5=
EXTT6=
EXTT7=
EXTT8=
EXTT9=
EXTT10=
EXTT11=
EXTT12=
EXTT13=
EXTT14=
PLAYORDER=
